Coordinates
version=1
nRows=8
nColumns=42
inDegrees=yes

Units are S.I. units (second, meters, Newtons, ...)
If the header above contains a line with 'inDegrees', this indicates whether rotational values are in degrees (yes) or radians (no).

endheader
time	pelvis_tilt	pelvis_list	pelvis_rotation	pelvis_tx	pelvis_ty	pelvis_tz	hip_flexion_r	hip_adduction_r	hip_rotation_r	knee_angle_r	knee_adduction_r	knee_angle_r_beta	ankle_angle_r	subtalar_angle_r	mtp_angle_r	hip_flexion_l	hip_adduction_l	hip_rotation_l	knee_angle_l	knee_adduction_l	knee_angle_l_beta	ankle_angle_l	subtalar_angle_l	mtp_angle_l	lumbar_extension	lumbar_bending	lumbar_rotation	arm_flex_r	arm_add_r	arm_rot_r	elbow_flex_r	pro_sup_r	wrist_flex_r	wrist_dev_r	arm_flex_l	arm_add_l	arm_rot_l	elbow_flex_l	pro_sup_l	wrist_flex_l	wrist_dev_l
      1.75000000	     14.65698406	      4.51451507	      2.64197385	      0.21780868	      0.94267319	     -0.24037264	    -14.58409809	      5.01010038	    -23.55091969	     10.66564240	     -5.91844390	      0.18615058	     20.85785336	     18.83742590	     -7.53656563	      8.57141677	      4.03975708	    -11.71964175	     47.12134460	     -5.75572355	      0.82242261	     17.45783878	      2.11724320	     -7.53656563	    -44.75432462	     -2.67439379	     -0.27325089	      6.54547528	    -10.95432356	      6.44474465	     40.28798293	     90.00000001	      0.00000000	      0.00000000	     -4.02795509	    -10.53345470	     12.26935117	     48.51290837	     90.00000001	      0.00000000	      0.00000000
      1.76000000	     14.57085503	      4.47866179	      2.79575965	      0.22319125	      0.94239546	     -0.24040130	    -15.31482004	      5.18012604	    -23.74240109	      9.80809938	     -5.73543046	      0.17118363	     20.77929648	     19.37233200	     -7.53585594	      9.26782704	      4.32366319	    -11.72644798	     45.22923649	     -5.80612952	      0.78939909	     17.14253652	      2.91927481	     -7.53585594	    -44.74433121	     -2.63321177	     -0.29674142	      6.59231354	    -10.99208880	      6.52391921	     40.41479128	     90.00000001	      0.00000000	      0.00000000	     -4.07473037	    -10.45318879	     12.14094036	     48.45420561	     90.00000001	      0.00000000	      0.00000000
      1.77000000	     14.64868517	      4.48123997	      2.85925553	      0.22878220	      0.94241036	     -0.24037336	    -16.32874830	      5.23794181	    -23.88562071	      8.83309084	     -5.37256321	      0.15416652	     20.52712471	     20.04193008	     -7.53483816	      9.61781304	      4.62387184	    -12.12431469	     43.04145542	     -6.00800237	      0.75121511	     16.81739235	      4.11562377	     -7.53483816	    -44.89274488	     -2.65873006	     -0.28140383	      6.60497515	    -11.05871217	      6.63926032	     40.57910325	     90.00000001	      0.00000000	      0.00000000	     -4.16161985	    -10.36897685	     11.97851322	     48.53883878	     90.00000001	      0.00000000	      0.00000000
      1.78000000	     14.64186850	      4.43933801	      2.97248710	      0.23431923	      0.94211094	     -0.24043028	    -17.21785332	      5.38998258	    -23.94237874	      7.90458257	     -5.08785967	      0.13796099	     20.34635710	     20.47492035	     -7.53303160	     10.08139662	      4.89219485	    -12.71981052	     40.83693443	     -6.37070008	      0.71273896	     16.53551647	      5.70563804	     -7.53303160	    -44.94833131	     -2.62723049	     -0.28121945	      6.61381930	    -11.13081416	      6.79291734	     40.74425365	     90.00000001	      0.00000000	      0.00000000	     -4.24918156	    -10.30437356	     11.88155480	     48.57310983	     90.00000001	      0.00000000	      0.00000000
      1.79000000	     14.54084464	      4.38030546	      3.19291649	      0.23971992	      0.94157238	     -0.24071438	    -18.00221163	      5.59736753	    -24.03646736	      6.94941874	     -4.83433333	      0.12129024	     20.21795006	     21.00343403	     -7.53245624	     10.62819000	      5.18166150	    -12.89124321	     38.65021896	     -6.49030155	      0.67457358	     16.03498021	      6.52657063	     -7.53245624	    -44.92008283	     -2.52278149	     -0.32777215	      6.65043682	    -11.16682127	      6.87403313	     40.77996780	     90.00000001	      0.00000000	      0.00000000	     -4.25838329	    -10.23809573	     11.81216220	     48.45194303	     90.00000001	      0.00000000	      0.00000000
      1.80000000	     14.41567396	      4.28944986	      3.45979986	      0.24505786	      0.94084675	     -0.24110079	    -18.67869756	      5.88864464	    -24.17971551	      6.12292076	     -4.72262422	      0.10686513	     20.15490402	     21.38295538	     -7.53203088	     11.18635784	      5.48427376	    -13.23005828	     36.40790681	     -6.79199907	      0.63543785	     15.61117817	      7.39884650	     -7.53203088	    -44.87179235	     -2.35735621	     -0.41771402	      6.69375704	    -11.19074645	      6.96230092	     40.87879458	     90.00000001	      0.00000000	      0.00000000	     -4.30698299	    -10.18782782	     11.76463795	     48.40796196	     90.00000001	      0.00000000	      0.00000000
      1.81000000	     14.48270397	      4.30774641	      3.57264363	      0.25070649	      0.94049781	     -0.24143922	    -19.72764422	      5.89191452	    -24.24699622	      5.14144940	     -4.24034868	      0.08973522	     19.94478941	     21.86936506	     -7.53156532	     11.31778571	      5.84877167	    -13.97908366	     33.85481479	     -7.10569623	      0.59087799	     15.18726924	      8.91149594	     -7.53156532	    -45.01574134	     -2.36554872	     -0.45865013	      6.70338333	    -11.25394610	      7.08559700	     40.96090844	     90.00000001	      0.00000000	      0.00000000	     -4.38700429	    -10.14260729	     11.70226359	     48.45226461	     90.00000001	      0.00000000	      0.00000000
      1.82000000	     14.53688309	      4.25695192	      3.72565610	      0.25636937	      0.93990439	     -0.24180286	    -20.68210906	      6.00091540	    -24.31522580	      4.32701910	     -3.83505360	      0.07552073	     19.81750630	     22.08562297	     -7.53084714	     11.49984221	      6.09042449	    -15.10960290	     31.39216821	     -7.52623794	      0.54789669	     14.97855139	     10.93920240	     -7.53084714	    -45.12570147	     -2.28727433	     -0.52260894	      6.71663036	    -11.30306890	      7.22963270	     41.07919318	     90.00000001	      0.00000000	      0.00000000	     -4.49555056	    -10.11255162	     11.67894365	     48.52863313	     90.00000001	      0.00000000	      0.00000000
